<svg width="310" height="99" viewBox="0 0 310 99" fill="none" xmlns="http://www.w3.org/2000/svg">
<path d="M25.2158 74.9514L30.1523 61.5911H72.5789L73.246 74.9514H25.2158ZM56.4354 31.9312L36.4229 66.2672L35.6224 69.7409L18.0113 99H0L61.6387 0L88.9892 99H71.9118L64.5739 70.5425L64.8407 66.668L56.4354 31.9312Z" fill="white"/>
<path d="M116.773 52.1453H133.863L158.239 99H139.327L116.773 52.1453ZM105.706 0.80162H122.096L105.285 99H89.0352L105.706 0.80162ZM112.85 15.1105L115.232 0.80162H134.704C141.241 0.80162 146.845 2.06417 151.514 4.58927C156.277 7.11438 159.826 10.6682 162.161 15.2508C164.589 19.8334 165.336 25.1642 164.403 31.2431C163.469 37.4156 161.181 42.7931 157.538 47.3757C153.896 51.9583 149.273 55.5121 143.67 58.0372C138.159 60.5623 132.042 61.8249 125.318 61.8249H104.865L107.247 48.2174H126.018C129.661 48.2174 132.976 47.5628 135.965 46.2534C139.047 44.8506 141.615 42.9334 143.67 40.5018C145.724 37.9767 147.078 35.0308 147.732 31.664C148.292 28.2972 147.966 25.398 146.751 22.9664C145.631 20.5348 143.856 18.6176 141.428 17.2148C139 15.8119 136.058 15.1105 132.603 15.1105H112.85Z" fill="white"/>
<path d="M175.35 0.80162H192.161L175.21 99H158.68L175.35 0.80162ZM226.903 0.80162H247.075L198.605 47.0951L231.806 99H212.473L179.273 46.8146L226.903 0.80162Z" fill="white"/>
<path d="M246.227 74.9514L251.163 61.5911H293.59L294.257 74.9514H246.227ZM277.446 31.9312L257.434 66.2672L256.633 69.7409L239.022 99H221.011L282.65 0L310 99H292.923L285.585 70.5425L285.852 66.668L277.446 31.9312Z" fill="white"/>
</svg>
